<?xml version="1.0" encoding="UTF-8" standalone="no"?>
<svg
   width="2200"
   height="2038"
   xml:space="preserve"
   overflow="hidden"
   version="1.1"
   id="svg281"
   xmlns="http://www.w3.org/2000/svg"
   xmlns:svg="http://www.w3.org/2000/svg"><defs
     id="defs101"><clipPath
       id="clip0"><rect
         x="-55"
         y="-91"
         width="2200"
         height="2038"
         id="rect2" /></clipPath><clipPath
       id="clip1"><path
         d="m 207.117,1129.84 409.623,135.51 -51.213,154.8 -409.623,-135.52 z"
         fill-rule="nonzero"
         clip-rule="nonzero"
         id="path5" /></clipPath><clipPath
       id="clip2"><path
         d="m 207.117,1129.84 409.623,135.51 -51.213,154.8 -409.623,-135.52 z"
         fill-rule="evenodd"
         clip-rule="evenodd"
         id="path8" /></clipPath><clipPath
       id="clip3"><path
         d="m 207.117,1129.84 409.623,135.51 -51.213,154.8 -409.623,-135.52 z"
         fill-rule="evenodd"
         clip-rule="evenodd"
         id="path11" /></clipPath><clipPath
       id="clip4"><path
         d="m 207.117,1129.84 409.623,135.51 -51.213,154.8 -409.623,-135.51 z"
         fill-rule="nonzero"
         clip-rule="nonzero"
         id="path14" /></clipPath><clipPath
       id="clip5"><path
         d="m 674.121,693.477 -163.432,347.293 806.181,379.38 163.44,-347.29 z"
         fill-rule="nonzero"
         clip-rule="nonzero"
         id="path17" /></clipPath><clipPath
       id="clip6"><path
         d="m 674.121,693.477 -163.432,347.293 806.181,379.38 163.44,-347.29 z"
         fill-rule="evenodd"
         clip-rule="evenodd"
         id="path20" /></clipPath><clipPath
       id="clip7"><path
         d="m 674.121,693.477 -163.432,347.293 806.181,379.38 163.44,-347.29 z"
         fill-rule="evenodd"
         clip-rule="evenodd"
         id="path23" /></clipPath><clipPath
       id="clip8"><path
         d="m 674.121,693.477 -163.432,347.293 806.181,379.38 163.44,-347.29 z"
         fill-rule="nonzero"
         clip-rule="nonzero"
         id="path26" /></clipPath><clipPath
       id="clip9"><path
         d="m 1246.46,466.586 378.65,-291.21 174.5,226.891 -378.66,291.21 z"
         fill-rule="nonzero"
         clip-rule="nonzero"
         id="path29" /></clipPath><clipPath
       id="clip10"><path
         d="m 1246.46,466.586 378.65,-291.21 174.5,226.89 -378.66,291.211 z"
         fill-rule="evenodd"
         clip-rule="evenodd"
         id="path32" /></clipPath><clipPath
       id="clip11"><path
         d="m 1246.46,466.586 378.65,-291.21 174.5,226.89 -378.66,291.211 z"
         fill-rule="evenodd"
         clip-rule="evenodd"
         id="path35" /></clipPath><clipPath
       id="clip12"><path
         d="m 1246.46,466.586 378.65,-291.21 174.5,226.891 -378.66,291.21 z"
         fill-rule="nonzero"
         clip-rule="nonzero"
         id="path38" /></clipPath><clipPath
       id="clip13"><path
         d="m 1630,1433.18 297.43,-75.21 41.78,165.24 -297.43,75.21 z"
         fill-rule="nonzero"
         clip-rule="nonzero"
         id="path41" /></clipPath><clipPath
       id="clip14"><path
         d="m 1630,1433.18 297.43,-75.21 41.78,165.24 -297.43,75.21 z"
         fill-rule="evenodd"
         clip-rule="evenodd"
         id="path44" /></clipPath><clipPath
       id="clip15"><path
         d="m 1630,1433.18 297.43,-75.21 41.78,165.24 -297.43,75.21 z"
         fill-rule="evenodd"
         clip-rule="evenodd"
         id="path47" /></clipPath><clipPath
       id="clip16"><path
         d="m 1630,1433.18 297.43,-75.21 41.78,165.24 -297.43,75.21 z"
         fill-rule="nonzero"
         clip-rule="nonzero"
         id="path50" /></clipPath><clipPath
       id="clip17"><path
         d="M 1132.25,336.877 264.833,982.554 -51.7004,557.316 815.718,-88.3616 Z"
         fill-rule="nonzero"
         clip-rule="nonzero"
         id="path53" /></clipPath><clipPath
       id="clip18"><path
         d="M 1132.25,336.877 264.833,982.554 -51.7004,557.316 815.718,-88.3617 Z"
         fill-rule="evenodd"
         clip-rule="evenodd"
         id="path56" /></clipPath><clipPath
       id="clip19"><path
         d="M 1132.25,336.877 264.833,982.554 -51.7004,557.316 815.718,-88.3617 Z"
         fill-rule="evenodd"
         clip-rule="evenodd"
         id="path59" /></clipPath><clipPath
       id="clip20"><path
         d="M 1132.25,336.877 264.833,982.554 -51.7006,557.316 815.718,-88.3617 Z"
         fill-rule="nonzero"
         clip-rule="nonzero"
         id="path62" /></clipPath><clipPath
       id="clip21"><rect
         x="261"
         y="1598"
         width="251"
         height="349"
         id="rect65" /></clipPath><clipPath
       id="clip22"><rect
         x="261"
         y="1598"
         width="251"
         height="349"
         id="rect68" /></clipPath><clipPath
       id="clip23"><rect
         x="261"
         y="1598"
         width="251"
         height="349"
         id="rect71" /></clipPath><clipPath
       id="clip24"><rect
         x="261"
         y="1598"
         width="251"
         height="350"
         id="rect74" /></clipPath><clipPath
       id="clip25"><path
         d="m 1098.31,1946.64 -52.31,-200.58 120.19,-31.34 52.31,200.58 z"
         fill-rule="nonzero"
         clip-rule="nonzero"
         id="path77" /></clipPath><clipPath
       id="clip26"><path
         d="m 1098.31,1946.64 -52.31,-200.58 120.19,-31.34 52.31,200.58 z"
         fill-rule="evenodd"
         clip-rule="evenodd"
         id="path80" /></clipPath><clipPath
       id="clip27"><path
         d="m 1098.31,1946.64 -52.31,-200.58 120.19,-31.34 52.31,200.58 z"
         fill-rule="evenodd"
         clip-rule="evenodd"
         id="path83" /></clipPath><clipPath
       id="clip28"><path
         d="m 1098.31,1946.64 -52.31,-200.58 120.19,-31.34 52.31,200.58 z"
         fill-rule="nonzero"
         clip-rule="nonzero"
         id="path86" /></clipPath><clipPath
       id="clip29"><path
         d="M 2140.33,696.885 2118.37,834.852 1798.1,783.87 1820.06,645.904 Z"
         fill-rule="nonzero"
         clip-rule="nonzero"
         id="path89" /></clipPath><clipPath
       id="clip30"><path
         d="M 2140.33,696.885 2118.37,834.852 1798.1,783.87 1820.06,645.904 Z"
         fill-rule="evenodd"
         clip-rule="evenodd"
         id="path92" /></clipPath><clipPath
       id="clip31"><path
         d="M 2140.33,696.885 2118.37,834.852 1798.1,783.87 1820.06,645.904 Z"
         fill-rule="evenodd"
         clip-rule="evenodd"
         id="path95" /></clipPath><clipPath
       id="clip32"><path
         d="M 2140.33,696.885 2118.37,834.852 1798.1,783.87 1820.06,645.904 Z"
         fill-rule="nonzero"
         clip-rule="nonzero"
         id="path98" /></clipPath></defs><g
     clip-path="url(#clip0)"
     transform="translate(-91.805085,-73.076271)"
     id="g279"><g
       clip-path="url(#clip1)"
       id="g127"><g
         clip-path="url(#clip2)"
         id="g125"><g
           clip-path="url(#clip3)"
           id="g123"><g
             clip-path="url(#clip4)"
             id="g121"><path
               d="m 316.529,144.309 h 82.866 l 42.279,77.816 -42.279,72.741 H 318.22 l -43.97,-71.049 z"
               stroke="#ebcb8b"
               stroke-width="8.58977"
               stroke-linecap="butt"
               stroke-linejoin="round"
               stroke-miterlimit="10"
               stroke-opacity="1"
               fill="none"
               fill-rule="evenodd"
               transform="matrix(0.953044,0.3153,-0.314092,0.949393,-5.72915,914.655)"
               id="path103" /><path
               d="m 568.29,143.685 h 82.864 l 42.281,77.815 -42.281,72.741 h -81.173 l -43.97,-71.049 z"
               stroke="#ebcb8b"
               stroke-width="8.58977"
               stroke-linecap="butt"
               stroke-linejoin="round"
               stroke-miterlimit="10"
               stroke-opacity="1"
               fill="none"
               fill-rule="evenodd"
               transform="matrix(0.953044,0.3153,-0.314092,0.949393,-5.72915,914.655)"
               id="path105" /><path
               d="m 441.674,219.275 84.756,3.673"
               stroke="#ebcb8b"
               stroke-width="8.58977"
               stroke-linecap="butt"
               stroke-linejoin="round"
               stroke-miterlimit="10"
               stroke-opacity="1"
               fill="none"
               fill-rule="evenodd"
               transform="matrix(0.953044,0.3153,-0.314092,0.949393,-5.72915,914.655)"
               id="path107" /><path
               d="m 572.864,157.428 h 73.255"
               stroke="#ebcb8b"
               stroke-width="8.58977"
               stroke-linecap="butt"
               stroke-linejoin="round"
               stroke-miterlimit="10"
               stroke-opacity="1"
               fill="none"
               fill-rule="evenodd"
               transform="matrix(0.953044,0.3153,-0.314092,0.949393,-5.72915,914.655)"
               id="path109" /><path
               d="m 321.104,281.747 h 73.257"
               stroke="#ebcb8b"
               stroke-width="8.58977"
               stroke-linecap="butt"
               stroke-linejoin="round"
               stroke-miterlimit="10"
               stroke-opacity="1"
               fill="none"
               fill-rule="evenodd"
               transform="matrix(0.953044,0.3153,-0.314092,0.949393,-5.72915,914.655)"
               id="path111" /><path
               d="M 0,0 33.3371,63.9703"
               stroke="#ebcb8b"
               stroke-width="8.58977"
               stroke-linecap="butt"
               stroke-linejoin="round"
               stroke-miterlimit="10"
               stroke-opacity="1"
               fill="none"
               fill-rule="evenodd"
               transform="matrix(0.953044,0.3153,0.314092,-0.949393,203.174,1217.63)"
               id="path113" /><path
               d="M 579.293,282.129 544.127,223.648"
               stroke="#ebcb8b"
               stroke-width="8.58977"
               stroke-linecap="butt"
               stroke-linejoin="round"
               stroke-miterlimit="10"
               stroke-opacity="1"
               fill="none"
               fill-rule="evenodd"
               transform="matrix(0.953044,0.3153,-0.314092,0.949393,-5.72915,914.655)"
               id="path115" /><path
               d="M 424.653,219.935 389.198,157.428"
               stroke="#ebcb8b"
               stroke-width="8.58977"
               stroke-linecap="butt"
               stroke-linejoin="round"
               stroke-miterlimit="10"
               stroke-opacity="1"
               fill="none"
               fill-rule="evenodd"
               transform="matrix(0.953044,0.3153,-0.314092,0.949393,-5.72915,914.655)"
               id="path117" /><path
               d="M 0,0 33.3371,63.9703"
               stroke="#ebcb8b"
               stroke-width="8.58977"
               stroke-linecap="butt"
               stroke-linejoin="round"
               stroke-miterlimit="10"
               stroke-opacity="1"
               fill="none"
               fill-rule="evenodd"
               transform="matrix(0.953044,0.3153,0.314092,-0.949393,516.174,1387.64)"
               id="path119" /></g></g></g></g><g
       clip-path="url(#clip5)"
       id="g153"><g
         clip-path="url(#clip6)"
         id="g151"><g
           clip-path="url(#clip7)"
           id="g149"><g
             clip-path="url(#clip8)"
             id="g147"><path
               d="M 0,0 118.105,69.6473"
               stroke="#b48ead"
               stroke-width="10.9499"
               stroke-linecap="butt"
               stroke-linejoin="round"
               stroke-miterlimit="10"
               stroke-opacity="1"
               fill="none"
               fill-rule="evenodd"
               transform="matrix(0.789826,0.614491,-0.61432,0.789057,675.888,701.825)"
               id="path129" /><path
               d="M 0,0 118.105,69.6473"
               stroke="#b48ead"
               stroke-width="10.9499"
               stroke-linecap="butt"
               stroke-linejoin="round"
               stroke-miterlimit="10"
               stroke-opacity="1"
               fill="none"
               fill-rule="evenodd"
               transform="matrix(0.789826,0.614491,-0.61432,0.789057,850.311,837.53)"
               id="path131" /><path
               d="M 0,0 118.105,69.6473"
               stroke="#b48ead"
               stroke-width="10.9499"
               stroke-linecap="butt"
               stroke-linejoin="round"
               stroke-miterlimit="10"
               stroke-opacity="1"
               fill="none"
               fill-rule="evenodd"
               transform="matrix(0.789826,0.614491,-0.61432,0.789057,1034,974.47)"
               id="path133" /><path
               d="M 0,0 118.105,69.6473"
               stroke="#b48ead"
               stroke-width="10.9499"
               stroke-linecap="butt"
               stroke-linejoin="round"
               stroke-miterlimit="10"
               stroke-opacity="1"
               fill="none"
               fill-rule="evenodd"
               transform="matrix(0.789826,0.614491,-0.61432,0.789057,1208.42,1110.17)"
               id="path135" /><path
               d="m 2045.66,367.686 42,-130.516"
               stroke="#b48ead"
               stroke-width="10.9494"
               stroke-linecap="butt"
               stroke-linejoin="round"
               stroke-miterlimit="10"
               stroke-opacity="1"
               fill="none"
               fill-rule="evenodd"
               transform="matrix(-0.425796,0.904819,0.905532,0.426131,1395.31,-1164.73)"
               id="path137" /><path
               d="m 2092.64,587.023 42,-130.516"
               stroke="#b48ead"
               stroke-width="10.9494"
               stroke-linecap="butt"
               stroke-linejoin="round"
               stroke-miterlimit="10"
               stroke-opacity="1"
               fill="none"
               fill-rule="evenodd"
               transform="matrix(-0.425796,0.904819,0.905532,0.426131,1395.31,-1164.73)"
               id="path139" /><path
               d="m 2139.63,806.412 42,-130.518"
               stroke="#b48ead"
               stroke-width="10.9494"
               stroke-linecap="butt"
               stroke-linejoin="round"
               stroke-miterlimit="10"
               stroke-opacity="1"
               fill="none"
               fill-rule="evenodd"
               transform="matrix(-0.425796,0.904819,0.905532,0.426131,1395.31,-1164.73)"
               id="path141" /><path
               d="m 2188.99,1025.59 42,-130.508"
               stroke="#b48ead"
               stroke-width="10.9494"
               stroke-linecap="butt"
               stroke-linejoin="round"
               stroke-miterlimit="10"
               stroke-opacity="1"
               fill="none"
               fill-rule="evenodd"
               transform="matrix(-0.425796,0.904819,0.905532,0.426131,1395.31,-1164.73)"
               id="path143" /><path
               d="M 2365.91,868.629 2228.44,899.59"
               stroke="#b48ead"
               stroke-width="21.8989"
               stroke-linecap="butt"
               stroke-linejoin="round"
               stroke-miterlimit="10"
               stroke-opacity="1"
               fill="none"
               fill-rule="evenodd"
               transform="matrix(-0.425796,0.904819,0.905532,0.426131,1395.31,-1164.73)"
               id="path145" /></g></g></g></g><g
       clip-path="url(#clip9)"
       id="g175"><g
         clip-path="url(#clip10)"
         id="g173"><g
           clip-path="url(#clip11)"
           id="g171"><g
             clip-path="url(#clip12)"
             id="g169"><path
               d="m 630.472,501.585 82.517,-45.174 84.513,54.419 -2.463,95.463 -80.83,44.252 -82.509,-46.761 z"
               stroke="#ebcb8b"
               stroke-width="9.75948"
               stroke-linecap="butt"
               stroke-linejoin="round"
               stroke-miterlimit="10"
               stroke-opacity="1"
               fill="none"
               fill-rule="evenodd"
               transform="matrix(0.792685,-0.609632,0.610034,0.793208,525.323,553.478)"
               id="path155" /><path
               d="m 710.327,636.171 73.008,-39.967"
               stroke="#ebcb8b"
               stroke-width="9.75948"
               stroke-linecap="butt"
               stroke-linejoin="round"
               stroke-miterlimit="10"
               stroke-opacity="1"
               fill="none"
               fill-rule="evenodd"
               transform="matrix(0.792685,-0.609632,0.610034,0.793208,525.323,553.478)"
               id="path157" /><path
               d="M 0,0 37.8823,72.6919"
               stroke="#ebcb8b"
               stroke-width="9.76097"
               stroke-linecap="butt"
               stroke-linejoin="round"
               stroke-miterlimit="10"
               stroke-opacity="1"
               fill="none"
               fill-rule="evenodd"
               transform="matrix(0.402321,-0.915499,-0.9156,-0.402973,1400.98,627.565)"
               id="path159" /><path
               d="M 779.559,517.596 710.121,474.645"
               stroke="#ebcb8b"
               stroke-width="9.75948"
               stroke-linecap="butt"
               stroke-linejoin="round"
               stroke-miterlimit="10"
               stroke-opacity="1"
               fill="none"
               fill-rule="evenodd"
               transform="matrix(0.792685,-0.609632,0.610034,0.793208,525.323,553.478)"
               id="path161" /><path
               d="m 799.213,507.02 73.519,-43.533 84.414,48.974 76.244,-46.254 65.35,38.092"
               stroke="#ebcb8b"
               stroke-width="9.75948"
               stroke-linecap="butt"
               stroke-linejoin="round"
               stroke-miterlimit="10"
               stroke-opacity="1"
               fill="none"
               fill-rule="evenodd"
               transform="matrix(0.792685,-0.609632,0.610034,0.793208,525.323,553.478)"
               id="path163" /><path
               d="m 959.552,512.816 -5.962,83.754 h 14.905 z"
               stroke="#ebcb8b"
               stroke-width="6.50632"
               stroke-linecap="butt"
               stroke-linejoin="round"
               stroke-miterlimit="10"
               stroke-opacity="1"
               fill="#000000"
               fill-rule="evenodd"
               fill-opacity="1"
               transform="matrix(0.792685,-0.609632,0.610034,0.793208,525.323,553.478)"
               id="path165" /><path
               d="M 0,0 2.56154e-4,82.5879"
               stroke="#ebcb8b"
               stroke-width="19.519"
               stroke-linecap="butt"
               stroke-linejoin="round"
               stroke-miterlimit="10"
               stroke-opacity="1"
               fill="none"
               fill-rule="evenodd"
               transform="matrix(0.792685,-0.609632,-0.610034,-0.793208,1628.71,292.992)"
               id="path167" /></g></g></g></g><g
       clip-path="url(#clip13)"
       id="g191"><g
         clip-path="url(#clip14)"
         id="g189"><g
           clip-path="url(#clip15)"
           id="g187"><g
             clip-path="url(#clip16)"
             id="g185"><path
               d="m 438.35,663.108 61.89,38.559 61.889,-39.804 60.655,37.313 61.889,-37.313 53.225,32.343"
               stroke="#d28670"
               stroke-width="7.01667"
               stroke-linecap="butt"
               stroke-linejoin="round"
               stroke-miterlimit="10"
               stroke-opacity="1"
               fill="none"
               fill-rule="evenodd"
               transform="matrix(0.971426,-0.245635,0.245145,0.969486,1062.03,964.106)"
               id="path177" /><path
               d="M 0,0 1.84164e-4,59.3773"
               stroke="#d28670"
               stroke-width="14.0333"
               stroke-linecap="butt"
               stroke-linejoin="round"
               stroke-miterlimit="10"
               stroke-opacity="1"
               fill="none"
               fill-rule="evenodd"
               transform="matrix(0.971426,-0.245635,-0.245145,-0.969486,1890.7,1437.98)"
               id="path179" /><path
               d="m 622.723,700.391 -4.491,60.215 h 11.227 z"
               stroke="#d28670"
               stroke-width="4.67778"
               stroke-linecap="butt"
               stroke-linejoin="round"
               stroke-miterlimit="10"
               stroke-opacity="1"
               fill="#000000"
               fill-rule="evenodd"
               fill-opacity="1"
               transform="matrix(0.971426,-0.245635,0.245145,0.969486,1062.03,964.106)"
               id="path181" /><path
               d="M 4.2866,0 0,60.726 h 10.7164 z"
               stroke="#d28670"
               stroke-width="4.67778"
               stroke-linecap="butt"
               stroke-linejoin="round"
               stroke-miterlimit="10"
               stroke-opacity="1"
               fill="#000000"
               fill-rule="evenodd"
               fill-opacity="1"
               transform="matrix(0.971426,-0.245635,-0.245145,-0.969486,1764.55,1465.74)"
               id="path183" /></g></g></g></g><g
       clip-path="url(#clip17)"
       id="g217"><g
         clip-path="url(#clip18)"
         id="g215"><g
           clip-path="url(#clip19)"
           id="g213"><g
             clip-path="url(#clip20)"
             id="g211"><path
               d="m 2576.2,2419.16 99.78,-134.13 165.04,11.5 69.07,172.44 -99.79,134.13 -165.01,-11.51 z"
               stroke="#88d0bf"
               stroke-width="21.7584"
               stroke-linecap="butt"
               stroke-linejoin="round"
               stroke-miterlimit="10"
               stroke-opacity="1"
               fill="none"
               fill-rule="evenodd"
               transform="matrix(-0.802571,0.597407,-0.597104,-0.802164,4510.58,587.892)"
               id="path193" /><path
               d="m 2802.48,2597.32 84.63,138.7 165.4,-46.24 -3.85,-181.07 -150.01,-38.54"
               stroke="#88d0bf"
               stroke-width="21.7584"
               stroke-linecap="butt"
               stroke-linejoin="round"
               stroke-miterlimit="10"
               stroke-opacity="1"
               fill="none"
               fill-rule="evenodd"
               transform="matrix(-0.802571,0.597407,-0.597104,-0.802164,4510.58,587.892)"
               id="path195" /><path
               d="m 3052.51,2502.8 145.91,-75.35 153.61,79.12 145.92,-79.12 130.56,79.12"
               stroke="#88d0bf"
               stroke-width="21.7584"
               stroke-linecap="butt"
               stroke-linejoin="round"
               stroke-miterlimit="10"
               stroke-opacity="1"
               fill="none"
               fill-rule="evenodd"
               transform="matrix(-0.802571,0.597407,-0.597104,-0.802164,4510.58,587.892)"
               id="path197" /><path
               d="M 0,0 5.71086e-4,184.127"
               stroke="#88d0bf"
               stroke-width="43.5168"
               stroke-linecap="butt"
               stroke-linejoin="round"
               stroke-miterlimit="10"
               stroke-opacity="1"
               fill="none"
               fill-rule="evenodd"
               transform="matrix(-0.802571,0.597407,0.597104,0.802164,249.64,728.811)"
               id="path199" /><path
               d="m 3351.43,2501.03 -13.29,186.73 h 33.23 z"
               stroke="#88d0bf"
               stroke-width="14.5056"
               stroke-linecap="butt"
               stroke-linejoin="round"
               stroke-miterlimit="10"
               stroke-opacity="1"
               fill="#000000"
               fill-rule="evenodd"
               fill-opacity="1"
               transform="matrix(-0.802571,0.597407,-0.597104,-0.802164,4510.58,587.892)"
               id="path201" /><path
               d="m 3017.69,2530.31 4.75,145.58"
               stroke="#88d0bf"
               stroke-width="21.7584"
               stroke-linecap="butt"
               stroke-linejoin="round"
               stroke-miterlimit="10"
               stroke-opacity="1"
               fill="none"
               fill-rule="evenodd"
               transform="matrix(-0.802571,0.597407,-0.597104,-0.802164,4510.58,587.892)"
               id="path203" /><path
               d="m 2875.28,2457.51 -83.87,115.52"
               stroke="#88d0bf"
               stroke-width="21.7584"
               stroke-linecap="butt"
               stroke-linejoin="round"
               stroke-miterlimit="10"
               stroke-opacity="1"
               fill="none"
               fill-rule="evenodd"
               transform="matrix(-0.802571,0.597407,-0.597104,-0.802164,4510.58,587.892)"
               id="path205" /><path
               d="m 2688.55,2319.84 140.84,6.33"
               stroke="#88d0bf"
               stroke-width="21.7584"
               stroke-linecap="butt"
               stroke-linejoin="round"
               stroke-miterlimit="10"
               stroke-opacity="1"
               fill="none"
               fill-rule="evenodd"
               transform="matrix(-0.802571,0.597407,-0.597104,-0.802164,4510.58,587.892)"
               id="path207" /><path
               d="m 2614.17,2422.7 58.55,145.58"
               stroke="#88d0bf"
               stroke-width="21.7584"
               stroke-linecap="butt"
               stroke-linejoin="round"
               stroke-miterlimit="10"
               stroke-opacity="1"
               fill="none"
               fill-rule="evenodd"
               transform="matrix(-0.802571,0.597407,-0.597104,-0.802164,4510.58,587.892)"
               id="path209" /></g></g></g></g><g
       clip-path="url(#clip21)"
       id="g229"><g
         clip-path="url(#clip22)"
         id="g227"><g
           clip-path="url(#clip23)"
           id="g225"><g
             clip-path="url(#clip24)"
             id="g223"><path
               d="m 2191.45,1380.03 v -117.1 l 116.71,-60.05 113.71,60.05"
               stroke="#d28670"
               stroke-width="17.0336"
               stroke-linecap="butt"
               stroke-linejoin="round"
               stroke-miterlimit="10"
               stroke-opacity="1"
               fill="none"
               fill-rule="evenodd"
               transform="matrix(-1,0,0,1.00615,2691.3,553.493)"
               id="path219" /><path
               d="M 0,0 4.47076e-4,144.144"
               stroke="#d28670"
               stroke-width="34.0672"
               stroke-linecap="butt"
               stroke-linejoin="round"
               stroke-miterlimit="10"
               stroke-opacity="1"
               fill="none"
               fill-rule="evenodd"
               transform="matrix(-1,0,0,-1.00615,379.687,1762.97)"
               id="path221" /></g></g></g></g><g
       clip-path="url(#clip25)"
       id="g251"><g
         clip-path="url(#clip26)"
         id="g249"><g
           clip-path="url(#clip27)"
           id="g247"><g
             clip-path="url(#clip28)"
             id="g245"><path
               d="m 273.595,217.664 35.808,-19.603 36.675,23.615 -1.068,41.427 -35.077,19.203 -35.805,-20.292 z"
               stroke="#88d0bf"
               stroke-width="6.90972"
               stroke-linecap="butt"
               stroke-linejoin="round"
               stroke-miterlimit="10"
               stroke-opacity="1"
               fill="none"
               fill-rule="evenodd"
               transform="matrix(-0.252355,-0.967635,0.968274,-0.252522,1011.03,2249.52)"
               id="path231" /><path
               d="M 308.248,276.068 339.93,258.724"
               stroke="#88d0bf"
               stroke-width="6.90972"
               stroke-linecap="butt"
               stroke-linejoin="round"
               stroke-miterlimit="10"
               stroke-opacity="1"
               fill="none"
               fill-rule="evenodd"
               transform="matrix(-0.252355,-0.967635,0.968274,-0.252522,1011.03,2249.52)"
               id="path233" /><path
               d="M 0,0 16.4391,31.5448"
               stroke="#88d0bf"
               stroke-width="6.91077"
               stroke-linecap="butt"
               stroke-linejoin="round"
               stroke-miterlimit="10"
               stroke-opacity="1"
               fill="none"
               fill-rule="evenodd"
               transform="matrix(-0.686209,-0.727405,-0.728045,0.686048,1188.78,1912.13)"
               id="path235" /><path
               d="M 338.292,224.612 308.159,205.974"
               stroke="#88d0bf"
               stroke-width="6.90972"
               stroke-linecap="butt"
               stroke-linejoin="round"
               stroke-miterlimit="10"
               stroke-opacity="1"
               fill="none"
               fill-rule="evenodd"
               transform="matrix(-0.252355,-0.967635,0.968274,-0.252522,1011.03,2249.52)"
               id="path237" /><path
               d="m 346.821,220.023 31.903,-18.892 36.632,21.253 33.087,-20.072 28.358,16.53"
               stroke="#88d0bf"
               stroke-width="6.90972"
               stroke-linecap="butt"
               stroke-linejoin="round"
               stroke-miterlimit="10"
               stroke-opacity="1"
               fill="none"
               fill-rule="evenodd"
               transform="matrix(-0.252355,-0.967635,0.968274,-0.252522,1011.03,2249.52)"
               id="path239" /><path
               d="m 416.4,222.538 -2.587,36.345 h 6.468 z"
               stroke="#88d0bf"
               stroke-width="6.90972"
               stroke-linecap="butt"
               stroke-linejoin="round"
               stroke-miterlimit="10"
               stroke-opacity="1"
               fill="#000000"
               fill-rule="evenodd"
               fill-opacity="1"
               transform="matrix(-0.252355,-0.967635,0.968274,-0.252522,1011.03,2249.52)"
               id="path241" /><path
               d="M 0,0 1.11159e-4,35.8393"
               stroke="#88d0bf"
               stroke-width="6.90972"
               stroke-linecap="butt"
               stroke-linejoin="round"
               stroke-miterlimit="10"
               stroke-opacity="1"
               fill="none"
               fill-rule="evenodd"
               transform="matrix(-0.252355,-0.967635,-0.968274,0.252522,1093.61,1764.52)"
               id="path243" /></g></g></g></g><g
       clip-path="url(#clip29)"
       id="g277"><g
         clip-path="url(#clip30)"
         id="g275"><g
           clip-path="url(#clip31)"
           id="g273"><g
             clip-path="url(#clip32)"
             id="g271"><path
               d="M 0,0 42.9873,25.3498"
               stroke="#d28670"
               stroke-width="6.98543"
               stroke-linecap="butt"
               stroke-linejoin="round"
               stroke-miterlimit="10"
               stroke-opacity="1"
               fill="none"
               fill-rule="evenodd"
               transform="matrix(-0.998696,0.0634878,0.0637795,0.997964,2138.09,699.035)"
               id="path253" /><path
               d="M 0,0 42.9873,25.3498"
               stroke="#d28670"
               stroke-width="6.98543"
               stroke-linecap="butt"
               stroke-linejoin="round"
               stroke-miterlimit="10"
               stroke-opacity="1"
               fill="none"
               fill-rule="evenodd"
               transform="matrix(-0.998696,0.0634878,0.0637795,0.997964,2057.81,704.139)"
               id="path255" /><path
               d="M 0,0 42.9873,25.3498"
               stroke="#d28670"
               stroke-width="6.98543"
               stroke-linecap="butt"
               stroke-linejoin="round"
               stroke-miterlimit="10"
               stroke-opacity="1"
               fill="none"
               fill-rule="evenodd"
               transform="matrix(-0.998696,0.0634878,0.0637795,0.997964,1974.5,707.717)"
               id="path257" /><path
               d="M 0,0 42.9873,25.3498"
               stroke="#d28670"
               stroke-width="6.98543"
               stroke-linecap="butt"
               stroke-linejoin="round"
               stroke-miterlimit="10"
               stroke-opacity="1"
               fill="none"
               fill-rule="evenodd"
               transform="matrix(-0.998696,0.0634878,0.0637795,0.997964,1894.22,712.818)"
               id="path259" /><path
               d="M 744.569,133.828 759.855,86.3236"
               stroke="#d28670"
               stroke-width="6.98516"
               stroke-linecap="butt"
               stroke-linejoin="round"
               stroke-miterlimit="10"
               stroke-opacity="1"
               fill="none"
               fill-rule="evenodd"
               transform="matrix(-0.157205,0.987566,-0.988344,-0.157329,2303.95,-9.91352)"
               id="path261" /><path
               d="m 761.667,213.661 15.286,-47.504"
               stroke="#d28670"
               stroke-width="6.98516"
               stroke-linecap="butt"
               stroke-linejoin="round"
               stroke-miterlimit="10"
               stroke-opacity="1"
               fill="none"
               fill-rule="evenodd"
               transform="matrix(-0.157205,0.987566,-0.988344,-0.157329,2303.95,-9.91352)"
               id="path263" /><path
               d="m 778.77,293.513 15.286,-47.505"
               stroke="#d28670"
               stroke-width="6.98516"
               stroke-linecap="butt"
               stroke-linejoin="round"
               stroke-miterlimit="10"
               stroke-opacity="1"
               fill="none"
               fill-rule="evenodd"
               transform="matrix(-0.157205,0.987566,-0.988344,-0.157329,2303.95,-9.91352)"
               id="path265" /><path
               d="m 796.737,373.289 15.287,-47.502"
               stroke="#d28670"
               stroke-width="6.98516"
               stroke-linecap="butt"
               stroke-linejoin="round"
               stroke-miterlimit="10"
               stroke-opacity="1"
               fill="none"
               fill-rule="evenodd"
               transform="matrix(-0.157205,0.987566,-0.988344,-0.157329,2303.95,-9.91352)"
               id="path267" /><path
               d="m 861.129,316.158 -50.036,11.269"
               stroke="#d28670"
               stroke-width="6.98516"
               stroke-linecap="butt"
               stroke-linejoin="round"
               stroke-miterlimit="10"
               stroke-opacity="1"
               fill="none"
               fill-rule="evenodd"
               transform="matrix(-0.157205,0.987566,-0.988344,-0.157329,2303.95,-9.91352)"
               id="path269" /></g></g></g></g></g></svg>
